<?xml version="1.0" standalone="no"?>
<!DOCTYPE svg PUBLIC "-//W3C//DTD SVG 20010904//EN"
 "http://www.w3.org/TR/2001/REC-SVG-20010904/DTD/svg10.dtd">
<svg version="1.0" xmlns="http://www.w3.org/2000/svg"
 width="512.000000pt" height="512.000000pt" viewBox="0 0 512.000000 512.000000"
 preserveAspectRatio="xMidYMid meet">
<metadata>
Created by potrace 1.11, written by Peter Selinger 2001-2013
</metadata>
<g transform="translate(0.000000,512.000000) scale(0.100000,-0.100000)"
fill="#000000" stroke="none">
<path d="M3023 3383 l-62 -63 129 -128 129 -129 -115 -117 -116 -116 38 -90
c33 -80 39 -89 53 -77 13 10 115 12 486 11 259 0 493 -4 520 -7 93 -12 170
-37 270 -87 157 -78 285 -206 374 -372 37 -69 76 -172 86 -228 3 -14 8 -46 13
-72 5 -25 6 -50 3 -55 -3 -4 -1023 -8 -2266 -8 l-2260 0 -3 410 -2 410 1274 0
1274 0 -24 40 c-14 22 -35 57 -47 77 -13 23 -30 38 -42 39 -25 1 -2542 1
-2570 0 -20 -1 -20 -7 -21 -566 l0 -565 2350 0 2351 1 89 82 c81 76 88 86 83
113 -4 16 -9 47 -12 69 -13 93 -60 230 -112 325 -169 311 -467 513 -803 546
-14 1 -209 2 -435 3 l-410 1 113 113 c61 62 112 116 112 119 0 6 -376 382
-383 383 -1 1 -30 -28 -64 -62z"/>
</g>
</svg>
